# xmcd CD database file
#
# Track frame offsets:
#	187
#	13362
#	28387
#	40575
#	52890
#	64957
#	77850
#	89542
#	102025
#	115602
#	130077
#	142965
#	155832
#	169812
#	185095
#	195722
#	209407
#
# Disc length: 2948 seconds
#
# Revision: 0
# Processed by: cddbd v1.5.2PL0 Copyright (c) Steve Scherf et al.
# Submitted via: CDex 1.70beta3
#
DISCID=f20b8211
DTITLE=Various Artist - Walkin' The Blues: The Blues Piano Chicago Style
DYEAR=1996
DGENRE=Blues
TTITLE0=Big Town Playboy - Little Johnny Jones
TTITLE1=Shelby County Blues - Little Johnny Jones
TTITLE2=It Must Have Been The Devil - Otis Spann
TTITLE3=Five Spot - Otis Spann
TTITLE4=I'm Leavin' You - Otis Spann
TTITLE5=Johnson Machine Gun - Sunnyland Slim
TTITLE6=Fly Right, Little Girl - Sunnyland Slim
TTITLE7=She Ain't Nowhere - Sunnyland Slim
TTITLE8=Give Love Another Chance - Eddie Ware
TTITLE9=Wandering Lover - Eddie Ware
TTITLE10=Rumba Dusta - Eddie Ware
TTITLE11=I Found Out - Eddie Ware
TTITLE12=I Declare That Ain't Right - Little Henry Gray
TTITLE13=Matchbox Blues - Little Henry Gray
TTITLE14=Untitled Instrumental - Little Henry Gray and Morris Pejoe
TTITLE15=Slow Leake - Lafayette Leake
TTITLE16=Wrinkles The Big Three Trio
EXTD=YEAR: 1996
EXTT0=
EXTT1=
EXTT2=
EXTT3=
EXTT4=
EXTT5=
EXTT6=
EXTT7=
EXTT8=
EXTT9=
EXTT10=
EXTT11=
EXTT12=
EXTT13=
EXTT14=
EXTT15=
EXTT16=
PLAYORDER=
